<svg fill="#000000" xmlns="http://www.w3.org/2000/svg"  viewBox="0 0 64 64" width="48px" height="48px"><path d="M32.589 21.637c.96.165 1.661.997 1.661 1.971v2.284c0 .974-.701 1.806-1.661 1.971l-2.544.438c-.213.778-.498 1.524-.85 2.234l1.572 2.226c.562.795.469 1.88-.219 2.568l-1.615 1.615c-.688.688-1.773.781-2.568.219l-2.005-1.416c-.727.431-1.5.791-2.312 1.07l-.434 2.522C21.448 40.299 20.616 41 19.642 41h-2.284c-.974 0-1.806-.701-1.971-1.661l-.381-2.215c-.911-.224-1.782-.546-2.603-.958l-1.914 1.352c-.795.562-1.88.469-2.568-.219l-1.615-1.615c-.688-.688-.781-1.773-.219-2.568l1.2-1.699c-.503-.837-.921-1.731-1.218-2.681l-2.158-.371c-.96-.165-1.661-.997-1.661-1.971v-2.284c0-.974.701-1.806 1.661-1.971l2.021-.348c.256-.964.61-1.888 1.076-2.745l-1.275-1.805c-.562-.795-.469-1.88.219-2.568l1.615-1.615c.688-.688 1.773-.781 2.568-.219l1.774 1.253c.807-.451 1.669-.813 2.573-1.078l.404-2.35C15.052 9.701 15.884 9 16.858 9h2.284c.974 0 1.806.701 1.971 1.661l.404 2.35c.831.243 1.627.566 2.377.967l2.117-1.495c.795-.562 1.88-.469 2.568.219l1.615 1.615c.688.689.781 1.773.219 2.568l-1.469 2.08c.386.698.705 1.437.953 2.209L32.589 21.637zM18 31c3.314 0 6-2.686 6-6s-2.686-6-6-6-6 2.686-6 6S14.686 31 18 31zM60.589 36.637c.96.165 1.661.997 1.661 1.971v2.284c0 .974-.701 1.806-1.661 1.971l-2.577.444c-.152.507-.343.995-.56 1.47l1.609 2.278c.562.795.469 1.88-.219 2.568l-1.615 1.615c-.688.688-1.773.781-2.568.219l-2.03-1.434c-.5.282-1.026.521-1.569.726l-.446 2.59C50.448 54.299 49.616 55 48.642 55h-2.284c-.974 0-1.806-.701-1.971-1.661L44 51.091c-.637-.172-1.25-.396-1.838-.669l-1.966 1.388c-.795.562-1.88.469-2.568-.219l-1.615-1.615c-.688-.689-.781-1.773-.219-2.568l1.218-1.724c-.349-.613-.641-1.261-.874-1.938l-2.226-.383c-.96-.165-1.661-.997-1.661-1.971v-2.284c0-.974.701-1.806 1.661-1.971l2.054-.354c.201-.69.466-1.351.786-1.981l-1.311-1.857c-.562-.795-.469-1.88.219-2.568l1.615-1.615c.688-.689 1.773-.781 2.568-.219l1.812 1.28c.58-.305 1.188-.563 1.821-.767l.412-2.395C44.052 25.701 44.884 25 45.858 25h2.284c.974 0 1.806.701 1.971 1.661l.412 2.395c.558.18 1.093.407 1.61.666l2.169-1.532c.795-.562 1.88-.469 2.568.219l1.615 1.615c.688.688.781 1.773.219 2.568l-1.5 2.123c.241.464.446.948.623 1.446L60.589 36.637zM47 46c3.314 0 6-2.686 6-6s-2.686-6-6-6-6 2.686-6 6S43.686 46 47 46z"/></svg>